<mxfile host="app.diagrams.net" modified="2023-08-09T10:23:24.056Z" agent="Mozilla/5.0 (Windows NT 10.0; Win64; x64) AppleWebKit/537.36 (KHTML, like Gecko) Chrome/115.0.0.0 Safari/537.36" etag="G1rYpIIQuJBHMeWMMjkA" version="21.6.7" type="device">
  <diagram name="Page-1" id="uHPjacaBh0jeWXSj6A4M">
    <mxGraphModel dx="2223" dy="2387" grid="1" gridSize="10" guides="1" tooltips="1" connect="1" arrows="1" fold="1" page="1" pageScale="1" pageWidth="850" pageHeight="1100" math="0" shadow="0">
      <root>
        <mxCell id="0" />
        <mxCell id="1" parent="0" />
        <mxCell id="bJbxsFeYpLuLlAURXNSk-6" value="&lt;font style=&quot;font-size: 14px;&quot;&gt;US-East-1a&lt;/font&gt;" style="sketch=0;outlineConnect=0;gradientColor=none;html=1;whiteSpace=wrap;fontSize=12;fontStyle=0;shape=mxgraph.aws4.group;grIcon=mxgraph.aws4.group_availability_zone;strokeColor=#545B64;fillColor=none;verticalAlign=top;align=left;spacingLeft=30;fontColor=#545B64;dashed=1;strokeWidth=2;" parent="1" vertex="1">
          <mxGeometry x="130" y="150" width="280" height="1010" as="geometry" />
        </mxCell>
        <mxCell id="bJbxsFeYpLuLlAURXNSk-7" value="&lt;font style=&quot;font-size: 14px;&quot;&gt;US-East-1b&lt;/font&gt;" style="sketch=0;outlineConnect=0;gradientColor=none;html=1;whiteSpace=wrap;fontSize=12;fontStyle=0;shape=mxgraph.aws4.group;grIcon=mxgraph.aws4.group_availability_zone;strokeColor=#545B64;fillColor=none;verticalAlign=top;align=left;spacingLeft=30;fontColor=#545B64;dashed=1;strokeWidth=2;" parent="1" vertex="1">
          <mxGeometry x="420" y="150" width="310" height="1010" as="geometry" />
        </mxCell>
        <mxCell id="bJbxsFeYpLuLlAURXNSk-1" value="AWS Account" style="points=[[0,0],[0.25,0],[0.5,0],[0.75,0],[1,0],[1,0.25],[1,0.5],[1,0.75],[1,1],[0.75,1],[0.5,1],[0.25,1],[0,1],[0,0.75],[0,0.5],[0,0.25]];outlineConnect=0;gradientColor=none;html=1;whiteSpace=wrap;fontSize=12;fontStyle=0;container=1;pointerEvents=0;collapsible=0;recursiveResize=0;shape=mxgraph.aws4.group;grIcon=mxgraph.aws4.group_account;strokeColor=#CD2264;fillColor=none;verticalAlign=top;align=left;spacingLeft=30;fontColor=#CD2264;dashed=0;" parent="1" vertex="1">
          <mxGeometry x="50" y="30" width="1200" height="1230" as="geometry" />
        </mxCell>
        <mxCell id="bJbxsFeYpLuLlAURXNSk-3" value="US-East-1" style="sketch=0;outlineConnect=0;gradientColor=none;html=1;whiteSpace=wrap;fontSize=12;fontStyle=0;shape=mxgraph.aws4.group;grIcon=mxgraph.aws4.group_region;strokeColor=#879196;fillColor=none;verticalAlign=top;align=left;spacingLeft=30;fontColor=#879196;dashed=1;strokeWidth=3;" parent="1" vertex="1">
          <mxGeometry x="80" y="70" width="1110" height="1160" as="geometry" />
        </mxCell>
        <mxCell id="bJbxsFeYpLuLlAURXNSk-4" value="VPC" style="points=[[0,0],[0.25,0],[0.5,0],[0.75,0],[1,0],[1,0.25],[1,0.5],[1,0.75],[1,1],[0.75,1],[0.5,1],[0.25,1],[0,1],[0,0.75],[0,0.5],[0,0.25]];outlineConnect=0;gradientColor=none;html=1;whiteSpace=wrap;fontSize=12;fontStyle=0;container=1;pointerEvents=0;collapsible=0;recursiveResize=0;shape=mxgraph.aws4.group;grIcon=mxgraph.aws4.group_vpc;strokeColor=#248814;fillColor=none;verticalAlign=top;align=left;spacingLeft=30;fontColor=#AAB7B8;dashed=0;" parent="1" vertex="1">
          <mxGeometry x="120" y="110" width="920" height="1080" as="geometry" />
        </mxCell>
        <mxCell id="bJbxsFeYpLuLlAURXNSk-8" value="&lt;font style=&quot;font-size: 14px;&quot;&gt;US-East-1c&lt;/font&gt;" style="sketch=0;outlineConnect=0;gradientColor=none;html=1;whiteSpace=wrap;fontSize=12;fontStyle=0;shape=mxgraph.aws4.group;grIcon=mxgraph.aws4.group_availability_zone;strokeColor=#545B64;fillColor=none;verticalAlign=top;align=left;spacingLeft=30;fontColor=#545B64;dashed=1;strokeWidth=2;" parent="bJbxsFeYpLuLlAURXNSk-4" vertex="1">
          <mxGeometry x="630" y="40" width="270" height="1010" as="geometry" />
        </mxCell>
        <mxCell id="bJbxsFeYpLuLlAURXNSk-17" value="&lt;font style=&quot;font-size: 14px;&quot;&gt;Private subnet&lt;/font&gt;" style="points=[[0,0],[0.25,0],[0.5,0],[0.75,0],[1,0],[1,0.25],[1,0.5],[1,0.75],[1,1],[0.75,1],[0.5,1],[0.25,1],[0,1],[0,0.75],[0,0.5],[0,0.25]];outlineConnect=0;gradientColor=none;html=1;whiteSpace=wrap;fontSize=12;fontStyle=0;container=1;pointerEvents=0;collapsible=0;recursiveResize=0;shape=mxgraph.aws4.group;grIcon=mxgraph.aws4.group_security_group;grStroke=0;strokeColor=#147EBA;fillColor=#E6F2F8;verticalAlign=top;align=left;spacingLeft=30;fontColor=#147EBA;dashed=0;" parent="bJbxsFeYpLuLlAURXNSk-4" vertex="1">
          <mxGeometry x="650" y="800" width="220" height="217" as="geometry" />
        </mxCell>
        <mxCell id="bJbxsFeYpLuLlAURXNSk-14" value="&lt;font style=&quot;font-size: 14px;&quot;&gt;Private subnet&lt;/font&gt;" style="points=[[0,0],[0.25,0],[0.5,0],[0.75,0],[1,0],[1,0.25],[1,0.5],[1,0.75],[1,1],[0.75,1],[0.5,1],[0.25,1],[0,1],[0,0.75],[0,0.5],[0,0.25]];outlineConnect=0;gradientColor=none;html=1;whiteSpace=wrap;fontSize=12;fontStyle=0;container=1;pointerEvents=0;collapsible=0;recursiveResize=0;shape=mxgraph.aws4.group;grIcon=mxgraph.aws4.group_security_group;grStroke=0;strokeColor=#147EBA;fillColor=#E6F2F8;verticalAlign=top;align=left;spacingLeft=30;fontColor=#147EBA;dashed=0;" parent="bJbxsFeYpLuLlAURXNSk-4" vertex="1">
          <mxGeometry x="650" y="446" width="220" height="190" as="geometry" />
        </mxCell>
        <mxCell id="_TF902hc-8ZPqu88dkX0-8" value="Backend Server" style="sketch=0;points=[[0,0,0],[0.25,0,0],[0.5,0,0],[0.75,0,0],[1,0,0],[0,1,0],[0.25,1,0],[0.5,1,0],[0.75,1,0],[1,1,0],[0,0.25,0],[0,0.5,0],[0,0.75,0],[1,0.25,0],[1,0.5,0],[1,0.75,0]];outlineConnect=0;fontColor=#232F3E;gradientColor=#F78E04;gradientDirection=north;fillColor=#D05C17;strokeColor=#ffffff;dashed=0;verticalLabelPosition=bottom;verticalAlign=top;align=center;html=1;fontSize=12;fontStyle=0;aspect=fixed;shape=mxgraph.aws4.resourceIcon;resIcon=mxgraph.aws4.ec2;" vertex="1" parent="bJbxsFeYpLuLlAURXNSk-4">
          <mxGeometry x="720" y="500" width="78" height="78" as="geometry" />
        </mxCell>
        <mxCell id="bJbxsFeYpLuLlAURXNSk-10" value="&lt;font style=&quot;font-size: 14px;&quot;&gt;Public subnet&lt;/font&gt;" style="points=[[0,0],[0.25,0],[0.5,0],[0.75,0],[1,0],[1,0.25],[1,0.5],[1,0.75],[1,1],[0.75,1],[0.5,1],[0.25,1],[0,1],[0,0.75],[0,0.5],[0,0.25]];outlineConnect=0;gradientColor=none;html=1;whiteSpace=wrap;fontSize=12;fontStyle=0;container=1;pointerEvents=0;collapsible=0;recursiveResize=0;shape=mxgraph.aws4.group;grIcon=mxgraph.aws4.group_security_group;grStroke=0;strokeColor=#248814;fillColor=#E9F3E6;verticalAlign=top;align=left;spacingLeft=30;fontColor=#248814;dashed=0;" parent="bJbxsFeYpLuLlAURXNSk-4" vertex="1">
          <mxGeometry x="330" y="150" width="260" height="210" as="geometry" />
        </mxCell>
        <mxCell id="bJbxsFeYpLuLlAURXNSk-9" value="&lt;font style=&quot;font-size: 14px;&quot;&gt;Public subnet&lt;/font&gt;" style="points=[[0,0],[0.25,0],[0.5,0],[0.75,0],[1,0],[1,0.25],[1,0.5],[1,0.75],[1,1],[0.75,1],[0.5,1],[0.25,1],[0,1],[0,0.75],[0,0.5],[0,0.25]];outlineConnect=0;gradientColor=none;html=1;whiteSpace=wrap;fontSize=12;fontStyle=0;container=1;pointerEvents=0;collapsible=0;recursiveResize=0;shape=mxgraph.aws4.group;grIcon=mxgraph.aws4.group_security_group;grStroke=0;strokeColor=#248814;fillColor=#E9F3E6;verticalAlign=top;align=left;spacingLeft=30;fontColor=#248814;dashed=0;" parent="bJbxsFeYpLuLlAURXNSk-4" vertex="1">
          <mxGeometry x="20" y="140" width="240" height="220" as="geometry" />
        </mxCell>
        <mxCell id="bJbxsFeYpLuLlAURXNSk-11" value="&lt;font style=&quot;font-size: 14px;&quot;&gt;Public subnet&lt;/font&gt;" style="points=[[0,0],[0.25,0],[0.5,0],[0.75,0],[1,0],[1,0.25],[1,0.5],[1,0.75],[1,1],[0.75,1],[0.5,1],[0.25,1],[0,1],[0,0.75],[0,0.5],[0,0.25]];outlineConnect=0;gradientColor=none;html=1;whiteSpace=wrap;fontSize=12;fontStyle=0;container=1;pointerEvents=0;collapsible=0;recursiveResize=0;shape=mxgraph.aws4.group;grIcon=mxgraph.aws4.group_security_group;grStroke=0;strokeColor=#248814;fillColor=#E9F3E6;verticalAlign=top;align=left;spacingLeft=30;fontColor=#248814;dashed=0;" parent="bJbxsFeYpLuLlAURXNSk-4" vertex="1">
          <mxGeometry x="640" y="150" width="220" height="210" as="geometry" />
        </mxCell>
        <mxCell id="bJbxsFeYpLuLlAURXNSk-12" value="&lt;font style=&quot;font-size: 14px;&quot;&gt;Private subnet&lt;/font&gt;" style="points=[[0,0],[0.25,0],[0.5,0],[0.75,0],[1,0],[1,0.25],[1,0.5],[1,0.75],[1,1],[0.75,1],[0.5,1],[0.25,1],[0,1],[0,0.75],[0,0.5],[0,0.25]];outlineConnect=0;gradientColor=none;html=1;whiteSpace=wrap;fontSize=12;fontStyle=0;container=1;pointerEvents=0;collapsible=0;recursiveResize=0;shape=mxgraph.aws4.group;grIcon=mxgraph.aws4.group_security_group;grStroke=0;strokeColor=#147EBA;fillColor=#E6F2F8;verticalAlign=top;align=left;spacingLeft=30;fontColor=#147EBA;dashed=0;" parent="1" vertex="1">
          <mxGeometry x="160" y="556" width="230" height="180" as="geometry" />
        </mxCell>
        <mxCell id="_TF902hc-8ZPqu88dkX0-6" value="Backend Server" style="sketch=0;points=[[0,0,0],[0.25,0,0],[0.5,0,0],[0.75,0,0],[1,0,0],[0,1,0],[0.25,1,0],[0.5,1,0],[0.75,1,0],[1,1,0],[0,0.25,0],[0,0.5,0],[0,0.75,0],[1,0.25,0],[1,0.5,0],[1,0.75,0]];outlineConnect=0;fontColor=#232F3E;gradientColor=#F78E04;gradientDirection=north;fillColor=#D05C17;strokeColor=#ffffff;dashed=0;verticalLabelPosition=bottom;verticalAlign=top;align=center;html=1;fontSize=12;fontStyle=0;aspect=fixed;shape=mxgraph.aws4.resourceIcon;resIcon=mxgraph.aws4.ec2;" vertex="1" parent="bJbxsFeYpLuLlAURXNSk-12">
          <mxGeometry x="71" y="56" width="78" height="78" as="geometry" />
        </mxCell>
        <mxCell id="bJbxsFeYpLuLlAURXNSk-13" value="&lt;font style=&quot;font-size: 14px;&quot;&gt;Private subnet&lt;/font&gt;" style="points=[[0,0],[0.25,0],[0.5,0],[0.75,0],[1,0],[1,0.25],[1,0.5],[1,0.75],[1,1],[0.75,1],[0.5,1],[0.25,1],[0,1],[0,0.75],[0,0.5],[0,0.25]];outlineConnect=0;gradientColor=none;html=1;whiteSpace=wrap;fontSize=12;fontStyle=0;container=1;pointerEvents=0;collapsible=0;recursiveResize=0;shape=mxgraph.aws4.group;grIcon=mxgraph.aws4.group_security_group;grStroke=0;strokeColor=#147EBA;fillColor=#E6F2F8;verticalAlign=top;align=left;spacingLeft=30;fontColor=#147EBA;dashed=0;" parent="1" vertex="1">
          <mxGeometry x="440" y="556" width="270" height="190" as="geometry" />
        </mxCell>
        <mxCell id="_TF902hc-8ZPqu88dkX0-7" value="Backend Server" style="sketch=0;points=[[0,0,0],[0.25,0,0],[0.5,0,0],[0.75,0,0],[1,0,0],[0,1,0],[0.25,1,0],[0.5,1,0],[0.75,1,0],[1,1,0],[0,0.25,0],[0,0.5,0],[0,0.75,0],[1,0.25,0],[1,0.5,0],[1,0.75,0]];outlineConnect=0;fontColor=#232F3E;gradientColor=#F78E04;gradientDirection=north;fillColor=#D05C17;strokeColor=#ffffff;dashed=0;verticalLabelPosition=bottom;verticalAlign=top;align=center;html=1;fontSize=12;fontStyle=0;aspect=fixed;shape=mxgraph.aws4.resourceIcon;resIcon=mxgraph.aws4.ec2;" vertex="1" parent="bJbxsFeYpLuLlAURXNSk-13">
          <mxGeometry x="90" y="56" width="78" height="78" as="geometry" />
        </mxCell>
        <mxCell id="bJbxsFeYpLuLlAURXNSk-15" value="&lt;font style=&quot;font-size: 14px;&quot;&gt;Private subnet&lt;/font&gt;" style="points=[[0,0],[0.25,0],[0.5,0],[0.75,0],[1,0],[1,0.25],[1,0.5],[1,0.75],[1,1],[0.75,1],[0.5,1],[0.25,1],[0,1],[0,0.75],[0,0.5],[0,0.25]];outlineConnect=0;gradientColor=none;html=1;whiteSpace=wrap;fontSize=12;fontStyle=0;container=1;pointerEvents=0;collapsible=0;recursiveResize=0;shape=mxgraph.aws4.group;grIcon=mxgraph.aws4.group_security_group;grStroke=0;strokeColor=#147EBA;fillColor=#E6F2F8;verticalAlign=top;align=left;spacingLeft=30;fontColor=#147EBA;dashed=0;" parent="1" vertex="1">
          <mxGeometry x="150" y="910" width="240" height="220" as="geometry" />
        </mxCell>
        <mxCell id="_TF902hc-8ZPqu88dkX0-2" value="RDS (Stand By)" style="outlineConnect=0;dashed=0;verticalLabelPosition=bottom;verticalAlign=top;align=center;html=1;shape=mxgraph.aws3.rds_db_instance_standby_multi_az;fillColor=#2E73B8;gradientColor=none;" vertex="1" parent="bJbxsFeYpLuLlAURXNSk-15">
          <mxGeometry x="80" y="77" width="62.25" height="83" as="geometry" />
        </mxCell>
        <mxCell id="_TF902hc-8ZPqu88dkX0-35" value="Security group" style="fillColor=none;strokeColor=#DD3522;verticalAlign=top;fontStyle=0;fontColor=#DD3522;whiteSpace=wrap;html=1;" vertex="1" parent="bJbxsFeYpLuLlAURXNSk-15">
          <mxGeometry x="55" y="58.5" width="130" height="130" as="geometry" />
        </mxCell>
        <mxCell id="bJbxsFeYpLuLlAURXNSk-16" value="&lt;font style=&quot;font-size: 14px;&quot;&gt;Private subnet&lt;/font&gt;" style="points=[[0,0],[0.25,0],[0.5,0],[0.75,0],[1,0],[1,0.25],[1,0.5],[1,0.75],[1,1],[0.75,1],[0.5,1],[0.25,1],[0,1],[0,0.75],[0,0.5],[0,0.25]];outlineConnect=0;gradientColor=none;html=1;whiteSpace=wrap;fontSize=12;fontStyle=0;container=1;pointerEvents=0;collapsible=0;recursiveResize=0;shape=mxgraph.aws4.group;grIcon=mxgraph.aws4.group_security_group;grStroke=0;strokeColor=#147EBA;fillColor=#E6F2F8;verticalAlign=top;align=left;spacingLeft=30;fontColor=#147EBA;dashed=0;" parent="1" vertex="1">
          <mxGeometry x="440" y="910" width="270" height="220" as="geometry" />
        </mxCell>
        <mxCell id="_TF902hc-8ZPqu88dkX0-1" value="RDS" style="outlineConnect=0;dashed=0;verticalLabelPosition=bottom;verticalAlign=top;align=center;html=1;shape=mxgraph.aws3.rds_db_instance;fillColor=#2E73B8;gradientColor=none;" vertex="1" parent="bJbxsFeYpLuLlAURXNSk-16">
          <mxGeometry x="100.13" y="77" width="69.75" height="93" as="geometry" />
        </mxCell>
        <mxCell id="_TF902hc-8ZPqu88dkX0-3" style="edgeStyle=orthogonalEdgeStyle;rounded=0;orthogonalLoop=1;jettySize=auto;html=1;" edge="1" parent="1" source="_TF902hc-8ZPqu88dkX0-1" target="_TF902hc-8ZPqu88dkX0-2">
          <mxGeometry relative="1" as="geometry" />
        </mxCell>
        <mxCell id="_TF902hc-8ZPqu88dkX0-4" value="&lt;font style=&quot;font-size: 18px;&quot;&gt;Synchronous&lt;/font&gt;" style="edgeLabel;html=1;align=center;verticalAlign=middle;resizable=0;points=[];" vertex="1" connectable="0" parent="_TF902hc-8ZPqu88dkX0-3">
          <mxGeometry x="-0.1839" y="1" relative="1" as="geometry">
            <mxPoint x="-16" y="16" as="offset" />
          </mxGeometry>
        </mxCell>
        <mxCell id="_TF902hc-8ZPqu88dkX0-13" style="edgeStyle=orthogonalEdgeStyle;rounded=0;orthogonalLoop=1;jettySize=auto;html=1;entryX=0.5;entryY=0;entryDx=0;entryDy=0;entryPerimeter=0;" edge="1" parent="1" source="_TF902hc-8ZPqu88dkX0-9" target="_TF902hc-8ZPqu88dkX0-12">
          <mxGeometry relative="1" as="geometry" />
        </mxCell>
        <mxCell id="_TF902hc-8ZPqu88dkX0-9" value="Auto Scaling group" style="points=[[0,0],[0.25,0],[0.5,0],[0.75,0],[1,0],[1,0.25],[1,0.5],[1,0.75],[1,1],[0.75,1],[0.5,1],[0.25,1],[0,1],[0,0.75],[0,0.5],[0,0.25]];outlineConnect=0;gradientColor=none;html=1;whiteSpace=wrap;fontSize=12;fontStyle=0;container=1;pointerEvents=0;collapsible=0;recursiveResize=0;shape=mxgraph.aws4.groupCenter;grIcon=mxgraph.aws4.group_auto_scaling_group;grStroke=1;strokeColor=#D86613;fillColor=none;verticalAlign=top;align=center;fontColor=#D86613;dashed=1;spacingTop=25;strokeWidth=3;" vertex="1" parent="1">
          <mxGeometry x="150" y="510" width="840" height="260" as="geometry" />
        </mxCell>
        <mxCell id="_TF902hc-8ZPqu88dkX0-32" value="Security group" style="fillColor=none;strokeColor=#DD3522;verticalAlign=top;fontStyle=0;fontColor=#DD3522;whiteSpace=wrap;html=1;" vertex="1" parent="_TF902hc-8ZPqu88dkX0-9">
          <mxGeometry x="355" y="80" width="130" height="130" as="geometry" />
        </mxCell>
        <mxCell id="_TF902hc-8ZPqu88dkX0-33" value="Security group" style="fillColor=none;strokeColor=#DD3522;verticalAlign=top;fontStyle=0;fontColor=#DD3522;whiteSpace=wrap;html=1;" vertex="1" parent="_TF902hc-8ZPqu88dkX0-9">
          <mxGeometry x="665" y="76" width="130" height="130" as="geometry" />
        </mxCell>
        <mxCell id="_TF902hc-8ZPqu88dkX0-14" style="edgeStyle=orthogonalEdgeStyle;rounded=0;orthogonalLoop=1;jettySize=auto;html=1;" edge="1" parent="1" source="_TF902hc-8ZPqu88dkX0-12" target="_TF902hc-8ZPqu88dkX0-1">
          <mxGeometry relative="1" as="geometry">
            <Array as="points">
              <mxPoint x="570" y="960" />
              <mxPoint x="570" y="960" />
            </Array>
          </mxGeometry>
        </mxCell>
        <mxCell id="_TF902hc-8ZPqu88dkX0-12" value="&lt;font style=&quot;font-size: 17px;&quot;&gt;Private Hosted Zone&lt;/font&gt;" style="outlineConnect=0;dashed=0;verticalLabelPosition=bottom;verticalAlign=top;align=center;html=1;shape=mxgraph.aws3.route_53;fillColor=#F58536;gradientColor=none;" vertex="1" parent="1">
          <mxGeometry x="549.75" y="820" width="40.5" height="55.5" as="geometry" />
        </mxCell>
        <mxCell id="_TF902hc-8ZPqu88dkX0-25" style="edgeStyle=orthogonalEdgeStyle;rounded=0;orthogonalLoop=1;jettySize=auto;html=1;entryX=0.5;entryY=0;entryDx=0;entryDy=0;" edge="1" parent="1" source="_TF902hc-8ZPqu88dkX0-15" target="_TF902hc-8ZPqu88dkX0-9">
          <mxGeometry relative="1" as="geometry" />
        </mxCell>
        <mxCell id="_TF902hc-8ZPqu88dkX0-39" style="edgeStyle=orthogonalEdgeStyle;rounded=0;orthogonalLoop=1;jettySize=auto;html=1;" edge="1" parent="1" source="_TF902hc-8ZPqu88dkX0-15" target="_TF902hc-8ZPqu88dkX0-38">
          <mxGeometry relative="1" as="geometry">
            <Array as="points">
              <mxPoint x="725" y="200" />
            </Array>
          </mxGeometry>
        </mxCell>
        <mxCell id="_TF902hc-8ZPqu88dkX0-15" value="&lt;font style=&quot;font-size: 14px;&quot;&gt;Application&lt;br&gt;Load Balancer&lt;/font&gt;" style="outlineConnect=0;dashed=0;verticalLabelPosition=bottom;verticalAlign=top;align=center;html=1;shape=mxgraph.aws3.application_load_balancer;fillColor=#F58534;gradientColor=none;" vertex="1" parent="1">
          <mxGeometry x="690" y="300" width="69" height="72" as="geometry" />
        </mxCell>
        <mxCell id="_TF902hc-8ZPqu88dkX0-27" style="edgeStyle=orthogonalEdgeStyle;rounded=0;orthogonalLoop=1;jettySize=auto;html=1;entryX=1;entryY=0.75;entryDx=0;entryDy=0;entryPerimeter=0;" edge="1" parent="1" source="_TF902hc-8ZPqu88dkX0-16" target="_TF902hc-8ZPqu88dkX0-17">
          <mxGeometry relative="1" as="geometry">
            <Array as="points">
              <mxPoint x="1370" y="361" />
            </Array>
          </mxGeometry>
        </mxCell>
        <mxCell id="_TF902hc-8ZPqu88dkX0-16" value="&lt;font style=&quot;font-size: 17px;&quot;&gt;Cloud Front&lt;/font&gt;" style="sketch=0;points=[[0,0,0],[0.25,0,0],[0.5,0,0],[0.75,0,0],[1,0,0],[0,1,0],[0.25,1,0],[0.5,1,0],[0.75,1,0],[1,1,0],[0,0.25,0],[0,0.5,0],[0,0.75,0],[1,0.25,0],[1,0.5,0],[1,0.75,0]];outlineConnect=0;fontColor=#232F3E;gradientColor=#945DF2;gradientDirection=north;fillColor=#5A30B5;strokeColor=#ffffff;dashed=0;verticalLabelPosition=bottom;verticalAlign=top;align=center;html=1;fontSize=12;fontStyle=0;aspect=fixed;shape=mxgraph.aws4.resourceIcon;resIcon=mxgraph.aws4.cloudfront;" vertex="1" parent="1">
          <mxGeometry x="1320" y="130" width="100" height="100" as="geometry" />
        </mxCell>
        <mxCell id="_TF902hc-8ZPqu88dkX0-17" value="&lt;font style=&quot;font-size: 18px;&quot;&gt;Static Website&lt;/font&gt;" style="sketch=0;points=[[0,0,0],[0.25,0,0],[0.5,0,0],[0.75,0,0],[1,0,0],[0,1,0],[0.25,1,0],[0.5,1,0],[0.75,1,0],[1,1,0],[0,0.25,0],[0,0.5,0],[0,0.75,0],[1,0.25,0],[1,0.5,0],[1,0.75,0]];outlineConnect=0;fontColor=#232F3E;gradientColor=#60A337;gradientDirection=north;fillColor=#277116;strokeColor=#ffffff;dashed=0;verticalLabelPosition=bottom;verticalAlign=top;align=center;html=1;fontSize=12;fontStyle=0;aspect=fixed;shape=mxgraph.aws4.resourceIcon;resIcon=mxgraph.aws4.s3;" vertex="1" parent="1">
          <mxGeometry x="1070" y="286" width="100" height="100" as="geometry" />
        </mxCell>
        <mxCell id="_TF902hc-8ZPqu88dkX0-28" style="edgeStyle=orthogonalEdgeStyle;rounded=0;orthogonalLoop=1;jettySize=auto;html=1;" edge="1" parent="1" source="_TF902hc-8ZPqu88dkX0-20" target="_TF902hc-8ZPqu88dkX0-16">
          <mxGeometry relative="1" as="geometry" />
        </mxCell>
        <mxCell id="_TF902hc-8ZPqu88dkX0-20" value="&lt;font style=&quot;font-size: 20px;&quot;&gt;Public Hosted Zone Record&lt;/font&gt;" style="outlineConnect=0;dashed=0;verticalLabelPosition=bottom;verticalAlign=top;align=center;html=1;shape=mxgraph.aws3.route_53;fillColor=#F58536;gradientColor=none;" vertex="1" parent="1">
          <mxGeometry x="874.56" y="-230" width="115.44" height="140" as="geometry" />
        </mxCell>
        <mxCell id="_TF902hc-8ZPqu88dkX0-24" style="edgeStyle=orthogonalEdgeStyle;rounded=0;orthogonalLoop=1;jettySize=auto;html=1;" edge="1" parent="1" source="_TF902hc-8ZPqu88dkX0-23" target="_TF902hc-8ZPqu88dkX0-20">
          <mxGeometry relative="1" as="geometry" />
        </mxCell>
        <mxCell id="_TF902hc-8ZPqu88dkX0-23" value="&lt;font style=&quot;font-size: 19px;&quot;&gt;Users&lt;/font&gt;" style="sketch=0;outlineConnect=0;fontColor=#232F3E;gradientColor=none;fillColor=#232F3D;strokeColor=none;dashed=0;verticalLabelPosition=bottom;verticalAlign=top;align=center;html=1;fontSize=12;fontStyle=0;aspect=fixed;pointerEvents=1;shape=mxgraph.aws4.users;" vertex="1" parent="1">
          <mxGeometry x="852.28" y="-500" width="160" height="160" as="geometry" />
        </mxCell>
        <mxCell id="_TF902hc-8ZPqu88dkX0-29" value="" style="outlineConnect=0;dashed=0;verticalLabelPosition=bottom;verticalAlign=top;align=center;html=1;shape=mxgraph.aws3.certificate_manager_2;fillColor=#759C3E;gradientColor=none;" vertex="1" parent="1">
          <mxGeometry x="623.13" y="312.96" width="53.75" height="46.07" as="geometry" />
        </mxCell>
        <mxCell id="_TF902hc-8ZPqu88dkX0-30" value="" style="outlineConnect=0;dashed=0;verticalLabelPosition=bottom;verticalAlign=top;align=center;html=1;shape=mxgraph.aws3.certificate_manager_2;fillColor=#759C3E;gradientColor=none;" vertex="1" parent="1">
          <mxGeometry x="1430" y="159.99999999999997" width="53.75" height="46.07" as="geometry" />
        </mxCell>
        <mxCell id="_TF902hc-8ZPqu88dkX0-31" value="Security group" style="fillColor=none;strokeColor=#DD3522;verticalAlign=top;fontStyle=0;fontColor=#DD3522;whiteSpace=wrap;html=1;" vertex="1" parent="1">
          <mxGeometry x="210" y="590" width="130" height="130" as="geometry" />
        </mxCell>
        <mxCell id="_TF902hc-8ZPqu88dkX0-34" value="Security group" style="fillColor=none;strokeColor=#DD3522;verticalAlign=top;fontStyle=0;fontColor=#DD3522;whiteSpace=wrap;html=1;" vertex="1" parent="1">
          <mxGeometry x="515" y="970" width="130" height="130" as="geometry" />
        </mxCell>
        <mxCell id="_TF902hc-8ZPqu88dkX0-36" value="&lt;font style=&quot;font-size: 18px;&quot;&gt;Bucket Policy&lt;/font&gt;" style="sketch=0;outlineConnect=0;fontColor=#232F3E;gradientColor=none;fillColor=#3F8624;strokeColor=none;dashed=0;verticalLabelPosition=bottom;verticalAlign=top;align=center;html=1;fontSize=12;fontStyle=0;aspect=fixed;pointerEvents=1;shape=mxgraph.aws4.policy;" vertex="1" parent="1">
          <mxGeometry x="1081" y="430" width="78" height="67" as="geometry" />
        </mxCell>
        <mxCell id="_TF902hc-8ZPqu88dkX0-37" value="&lt;font style=&quot;font-size: 14px;&quot;&gt;NAT Gateway&lt;/font&gt;" style="outlineConnect=0;dashed=0;verticalLabelPosition=bottom;verticalAlign=top;align=center;html=1;shape=mxgraph.aws3.vpc_nat_gateway;fillColor=#F58534;gradientColor=none;" vertex="1" parent="1">
          <mxGeometry x="380" y="340" width="69" height="72" as="geometry" />
        </mxCell>
        <mxCell id="_TF902hc-8ZPqu88dkX0-40" style="edgeStyle=orthogonalEdgeStyle;rounded=0;orthogonalLoop=1;jettySize=auto;html=1;entryX=0.5;entryY=0;entryDx=0;entryDy=0;entryPerimeter=0;" edge="1" parent="1" source="_TF902hc-8ZPqu88dkX0-38" target="_TF902hc-8ZPqu88dkX0-17">
          <mxGeometry relative="1" as="geometry" />
        </mxCell>
        <mxCell id="_TF902hc-8ZPqu88dkX0-38" value="&lt;font style=&quot;font-size: 20px;&quot;&gt;Public Hosted Zone &lt;br&gt;Record&lt;/font&gt;" style="outlineConnect=0;dashed=0;verticalLabelPosition=bottom;verticalAlign=top;align=center;html=1;shape=mxgraph.aws3.route_53;fillColor=#F58536;gradientColor=none;" vertex="1" parent="1">
          <mxGeometry x="1081" y="120" width="80" height="97.02" as="geometry" />
        </mxCell>
      </root>
    </mxGraphModel>
  </diagram>
</mxfile>
